<svg xmlns="http://www.w3.org/2000/svg" version="1.1" xmlns:xlink="http://www.w3.org/1999/xlink" xmlns:svgjs="http://svgjs.dev/svgjs" width="100%" height="100%" viewBox="0 0 1000 600"><rect width="1000" height="600" x="0" y="0" fill="#2f3c7e"/><g><circle r="166.66666666666666" cx="827.1472574869791" cy="831.5976255544888" fill="#fbeaeb" transform="matrix(0.19448934157954662,0,0,0.19448934157954662,-2.7842003898673764,138.26312563119055)"/><path d="M657.0241799754463 756.5975487595744L779.7514515204781 756.5975487595744L779.7514515204781 773.6430031408288L727.4787247512978 773.6430031408288L727.4787247512978 906.5975473146133L709.2969067446264 906.5975473146133L709.2969067446264 773.6430031408288L657.0241799754463 773.6430031408288L657.0241799754463 756.5975487595744ZM862.043117394423 906.5975473146133L839.536804479915 906.5975473146133L795.2186230886534 756.5975487595744L814.0948855330796 756.5975487595744L851.1214003279156 889.994012121021L886.3486727158414 756.5975487595744L907.0241775671778 756.5975487595744L942.2514499551036 890.4674969649448L979.3095304062012 756.5975487595744L997.2703888190415 756.5975487595744L953.1731670216111 906.5975473146133L930.666854107103 906.5975473146133L904.0885715348506 809.3121947164167L896.354985750763 775.4738112040005L896.1340261569319 775.4738112040005L888.4004403728443 809.3121947164167L862.043117394423 906.5975473146133Z " fill="#2f3c7e" transform="matrix(0.19448934157954662,0,0,0.19448934157954662,-2.7842003898673764,138.26312563119055)"/><path d="M1077.1472878684294 771.6982315065568L1185.8721135881922 771.6982315065568L1185.8721135881922 786.7989017454128L1139.5633915223675 786.7989017454128L1139.5633915223675 904.584129608489L1123.4560099342543 904.584129608489L1123.4560099342543 786.7989017454128L1077.1472878684294 786.7989017454128L1077.1472878684294 771.6982315065568ZM1227.1472789077318 904.584129608489L1211.0398973196188 904.584129608489L1211.0398973196188 803.9129946827828L1224.1271448599605 803.9129946827828L1226.364281191643 820.4118751289402Q1230.5868760176934 811.1557235566045 1238.724459424188 806.5416298725096Q1246.8900070348286 801.8995719842686 1258.5790443678688 801.8995719842686L1258.5790443678688 801.8995719842686Q1261.1797153534496 801.8995719842686 1264.311706217805 802.2910708423132Q1267.4157328780143 802.7105339045036 1269.6528692096967 803.9129946827828L1269.6528692096967 803.9129946827828L1266.8284845909475 818.6221660635944Q1264.6193124634115 817.8112041433595 1261.9906772736845 817.391741081169Q1259.3620420839577 817.0002422231247 1254.5521989708407 817.0002422231247L1254.5521989708407 817.0002422231247Q1248.28821724213 817.0002422231247 1241.9683071051275 820.6355887621085Q1235.6204327639787 824.2429710969462 1231.3978379379282 831.597556787352Q1227.1472789077318 838.9521424777578 1227.1472789077318 850.2217167486077L1227.1472789077318 850.2217167486077L1227.1472789077318 904.584129608489ZM1351.9794862156075 867.3358096859778L1351.9794862156075 839.5393907648244Q1351.9794862156075 828.2698164939745 1345.939218120065 822.1456557859941Q1339.8989500245227 815.9935308738676 1328.825125182695 815.9935308738676L1328.825125182695 815.9935308738676Q1318.36651283208 815.9935308738676 1311.1237839582584 820.5237319455243Q1303.8810550844369 825.0539330171811 1300.441457974475 835.1210465097517L1300.441457974475 835.1210465097517L1287.3542104341332 827.0673557156953Q1291.3810558311616 815.7977814448453 1302.259131243967 808.834694612484Q1313.1372066567724 801.8995719842686 1329.2445882448856 801.8995719842686L1329.2445882448856 801.8995719842686Q1340.122663657691 801.8995719842686 1348.9593521678362 805.6188111356906Q1357.8240048821276 809.3380502871125 1362.9694184449972 816.8883854065406Q1368.0868678037205 824.4387205259685 1368.0868678037205 836.323507288031L1368.0868678037205 836.323507288031L1368.0868678037205 885.0651151145604Q1368.0868678037205 892.307843988382 1375.7490597397325 892.307843988382L1375.7490597397325 892.307843988382Q1379.5801557077386 892.307843988382 1383.1875380425763 891.3011326391251L1383.1875380425763 891.3011326391251L1382.4045403264877 903.9689171172764Q1378.3776949294593 905.9823398157905 1371.9179637717266 905.9823398157905L1371.9179637717266 905.9823398157905Q1366.0734451052062 905.9823398157905 1361.4593514211115 903.7731676882541Q1356.8172935328707 901.5639955607179 1354.2166225472897 897.033794489061Q1351.5879873575632 892.5035934174043 1351.5879873575632 885.6523634016271L1351.5879873575632 885.6523634016271L1351.5879873575632 883.638940703113L1355.6148327545914 884.2541531943256Q1353.2099111980328 892.1120945593599 1347.3653925315127 897.033794489061Q1341.5208738649924 901.9554944187622 1334.2781449911708 904.2765233628827Q1327.035416117349 906.5975523070032 1319.9884366725496 906.5975523070032L1319.9884366725496 906.5975523070032Q1311.1237839582584 906.5975523070032 1303.4615920222464 903.577418259232Q1295.8273642903803 900.5572842114608 1291.2971632187234 894.4051592993343Q1286.7669621470668 888.2809985913539 1286.7669621470668 879.2205964480403L1286.7669621470668 879.2205964480403Q1286.7669621470668 867.9510221771903 1294.3172972664947 860.5964364867847Q1301.8676323859227 853.2418507963788 1315.3463787843089 850.613215606652L1315.3463787843089 850.613215606652L1355.2233338965468 842.7832384457638L1355.2233338965468 856.0662354151278L1322.7848570871527 862.6937517977368Q1312.9414572277503 864.707174496251 1308.103649910487 868.3425210352348Q1303.265842593224 871.9778675742186 1303.265842593224 878.4096345278055L1303.265842593224 878.4096345278055Q1303.265842593224 884.64565205237 1308.1875425229252 888.5886048369601Q1313.1372066567724 892.5035934174043 1322.197608800086 892.5035934174043L1322.197608800086 892.5035934174043Q1328.0421274666062 892.5035934174043 1333.355326254352 890.9935263935187Q1338.6964892462433 889.4834593696331 1342.919084072294 886.3514685052778Q1347.1696431024905 883.2474418450685 1349.574564659049 878.5214913443896Q1351.9794862156075 873.7675766395645 1351.9794862156075 867.3358096859778L1351.9794862156075 867.3358096859778ZM1448.0365274572189 756.5975612677008L1448.0365274572189 756.5975612677008Q1453.2658336325264 756.5975612677008 1457.9078915207672 757.8000220459802Q1462.5219852048622 759.0024828242595 1465.150620394589 761.2396191559418L1465.150620394589 761.2396191559418L1460.9280255685385 774.3268666962837Q1458.4951398078338 772.7049428558139 1455.670755189085 772.0058377521632Q1452.874334774482 771.3067326485124 1449.4347376645203 771.3067326485124L1449.4347376645203 771.3067326485124Q1440.7937985833971 771.3067326485124 1435.955991266134 775.4174706579787Q1431.1181839488709 779.5561728715911 1431.1181839488709 788.6165750149047L1431.1181839488709 788.6165750149047L1431.1181839488709 803.9129946827828L1431.1181839488709 809.1423008580904L1431.1181839488709 904.584129608489L1415.0108023607581 904.584129608489L1415.0108023607581 786.994651174435Q1415.0108023607581 780.367134791826 1417.024225059272 774.718365554328Q1419.0376477577863 769.06959631683 1423.1763499713986 765.0427509198018Q1427.287087980865 761.0159055227736 1433.5231055054296 758.8067333952372Q1439.78708723414 756.5975612677008 1448.0365274572189 756.5975612677008ZM1394.8765753756168 803.9129946827828L1464.7311573323984 803.9129946827828L1464.7311573323984 817.8112041433595L1394.8765753756168 817.8112041433595L1394.8765753756168 803.9129946827828ZM1527.1472609863363 756.5975612677008L1527.1472609863363 756.5975612677008Q1532.4045313657898 756.5975612677008 1537.0186250498846 757.8000220459802Q1541.6606829381255 759.0024828242595 1544.2613539237063 761.2396191559418L1544.2613539237063 761.2396191559418L1540.0387590976559 774.3268666962837Q1537.6338375410974 772.7049428558139 1534.8094529223483 772.0058377521632Q1531.9850683035993 771.3067326485124 1528.5734353977837 771.3067326485124L1528.5734353977837 771.3067326485124Q1519.9045321125145 771.3067326485124 1515.0667247952515 775.4174706579787Q1510.2568816821345 779.5561728715911 1510.2568816821345 788.6165750149047L1510.2568816821345 788.6165750149047L1510.2568816821345 803.9129946827828L1510.2568816821345 809.1423008580904L1510.2568816821345 904.584129608489L1494.1495000940215 904.584129608489L1494.1495000940215 786.994651174435Q1494.1495000940215 780.367134791826 1496.1629227925355 774.718365554328Q1498.1763454910497 769.06959631683 1502.287083500516 765.0427509198018Q1506.4257857141283 761.0159055227736 1512.661803238693 758.8067333952372Q1518.8978207632576 756.5975612677008 1527.1472609863363 756.5975612677008ZM1474.0152731088801 803.9129946827828L1543.8698550656618 803.9129946827828L1543.8698550656618 817.8112041433595L1474.0152731088801 817.8112041433595L1474.0152731088801 803.9129946827828ZM1573.4559830521612 784.5897296178765L1573.4559830521612 784.5897296178765Q1568.0309274478313 784.5897296178765 1564.7031871544539 781.2619893244989Q1561.3754468610764 777.9342490311215 1561.3754468610764 772.5091934267917L1561.3754468610764 772.5091934267917Q1561.3754468610764 767.0561736183159 1564.7031871544539 763.7563975290844Q1568.0309274478313 760.428657235707 1573.4559830521612 760.428657235707L1573.4559830521612 760.428657235707Q1578.909002860637 760.428657235707 1582.2367431540144 763.7563975290844Q1585.536519243246 767.0561736183159 1585.536519243246 772.5091934267917L1585.536519243246 772.5091934267917Q1585.536519243246 777.9342490311215 1582.2367431540144 781.2619893244989Q1578.909002860637 784.5897296178765 1573.4559830521612 784.5897296178765ZM1565.4022922581048 803.9129946827828L1581.5096738462175 803.9129946827828L1581.5096738462175 904.584129608489L1565.4022922581048 904.584129608489L1565.4022922581048 803.9129946827828ZM1660.6483715794811 801.8995719842686L1660.6483715794811 801.8995719842686Q1671.1069839300962 801.8995719842686 1679.0767821117147 805.1154554610621Q1687.018616089187 808.3313389378555 1692.863134755707 814.3716070333979Q1698.7076534222274 820.4118751289402 1702.315035757065 828.6892795561649L1702.315035757065 828.6892795561649L1687.018616089187 835.9320084299866Q1683.8027326123936 826.2563937954604 1677.2591088422228 821.138944436737Q1670.7154850720517 815.9935308738676 1660.2568727214366 815.9935308738676L1660.2568727214366 815.9935308738676Q1650.189759228866 815.9935308738676 1642.9190661508985 820.5237319455243Q1635.676337277077 825.0539330171811 1631.8452413090708 833.6109794858661Q1628.0421095452107 842.1680259545511 1628.0421095452107 854.2485621456359L1628.0421095452107 854.2485621456359Q1628.0421095452107 866.1333489076984 1631.8452413090708 874.7742879888216Q1635.676337277077 883.4431912740907 1642.9190661508985 887.9733923457475Q1650.189759228866 892.5035934174043 1660.2568727214366 892.5035934174043L1660.2568727214366 892.5035934174043Q1668.0868498823252 892.5035934174043 1673.8474759364071 890.0986718608457Q1679.5801377863431 887.6657861001412 1683.299376937765 883.0516924160463Q1687.018616089187 878.4096345278055 1688.4447905006346 871.7541539410504L1688.4447905006346 871.7541539410504L1703.3217471063222 877.0114243205039Q1699.9101142005065 886.2675758928398 1693.9817029215483 892.8950922754487Q1688.025327438444 899.5505728622037 1679.664030398781 903.0740625846034Q1671.3306975632645 906.5975523070032 1660.6483715794811 906.5975523070032L1660.6483715794811 906.5975523070032Q1646.5544126898822 906.5975523070032 1635.4805878480547 900.3615347824385Q1624.4067630062268 894.125517257874 1618.1707454816624 882.3246231082495Q1611.9347279570977 870.5516931627711 1611.9347279570977 854.2485621456359L1611.9347279570977 854.2485621456359Q1611.9347279570977 837.9454311285007 1618.1707454816624 826.1725011830223Q1624.4067630062268 814.3716070333979 1635.4805878480547 808.1355895088333Q1646.5544126898822 801.8995719842686 1660.6483715794811 801.8995719842686ZM1803.4056337449617 771.6982315065568L1850.3016040978532 771.6982315065568Q1863.8083147003854 771.6982315065568 1873.763571376372 776.6199314362581Q1883.7467922565047 781.5695955701052 1889.3675972898563 790.6299977134188Q1895.0163665273544 799.6903998567324 1895.0163665273544 812.1624349058615L1895.0163665273544 812.1624349058615Q1895.0163665273544 824.6624341591368 1889.3675972898563 833.7228363024502Q1883.7467922565047 842.7832384457638 1873.763571376372 847.7049383754651Q1863.8083147003854 852.6266383051662 1850.3016040978532 852.6266383051662L1850.3016040978532 852.6266383051662L1819.5130153330747 852.6266383051662L1819.5130153330747 904.584129608489L1803.4056337449617 904.584129608489L1803.4056337449617 771.6982315065568ZM1819.5130153330747 837.5259680663103L1847.8966825412947 837.5259680663103Q1863.6125652713636 837.5259680663103 1870.8552941451849 830.9823442961393Q1878.0980230190066 824.4387205259685 1878.0980230190066 812.1624349058615L1878.0980230190066 812.1624349058615Q1878.0980230190066 799.6903998567324 1870.8552941451849 793.2306686989996Q1863.6125652713636 786.7989017454128 1847.8966825412947 786.7989017454128L1847.8966825412947 786.7989017454128L1819.5130153330747 786.7989017454128L1819.5130153330747 837.5259680663103ZM1939.311665894665 904.584129608489L1923.2042843065524 904.584129608489L1923.2042843065524 803.9129946827828L1936.2915318468938 803.9129946827828L1938.5007039744305 820.4118751289402Q1942.7232988004807 811.1557235566045 1950.8888464111214 806.5416298725096Q1959.026429817616 801.8995719842686 1970.7154671506564 801.8995719842686L1970.7154671506564 801.8995719842686Q1973.344102340383 801.8995719842686 1976.4481290005924 802.2910708423132Q1979.5801198649478 802.7105339045036 1981.7892919924839 803.9129946827828L1981.7892919924839 803.9129946827828L1978.964907373735 818.6221660635944Q1976.7557352461988 817.8112041433595 1974.127100056472 817.391741081169Q1971.5264290708913 817.0002422231247 1966.688621753628 817.0002422231247L1966.688621753628 817.0002422231247Q1960.4526042290636 817.0002422231247 1954.1047298879148 820.6355887621085Q1947.756855546766 824.2429710969462 1943.5342607207156 831.597556787352Q1939.311665894665 838.9521424777578 1939.311665894665 850.2217167486077L1939.311665894665 850.2217167486077L1939.311665894665 904.584129608489ZM2047.4212791232153 906.5975523070032L2047.4212791232153 906.5975523070032Q2033.131570804594 906.5975523070032 2021.9458891461825 900.3615347824385Q2010.7881716919167 894.125517257874 2004.552154167352 882.3246231082495Q1998.2881724386414 870.5516931627711 1998.2881724386414 854.2485621456359L1998.2881724386414 854.2485621456359Q1998.2881724386414 837.9454311285007 2004.552154167352 826.1725011830223Q2010.7881716919167 814.3716070333979 2021.666247104722 808.1355895088333Q2032.5163583133815 801.8995719842686 2046.4145677739582 801.8995719842686L2046.4145677739582 801.8995719842686Q2060.508526663557 801.8995719842686 2070.4917475436896 807.939840079811Q2080.4470042196763 813.9801081753534 2085.6763103949834 824.3548279135304Q2090.9056165702914 834.7295476517073 2090.9056165702914 847.593081558881L2090.9056165702914 847.593081558881Q2090.9056165702914 851.0326786688425 2090.7098671412687 853.8570632875916Q2090.514117712247 856.6534837021944 2090.1226188542023 858.8906200338769L2090.1226188542023 858.8906200338769L2008.7747489934025 858.8906200338769L2008.7747489934025 844.5729475111096L2083.075639409403 844.5729475111096L2074.798234982178 846.1948713515794Q2074.798234982178 831.7094136039361 2066.8564010047057 823.8514722389019Q2058.9145670272333 815.9935308738676 2046.0230689159139 815.9935308738676L2046.0230689159139 815.9935308738676Q2036.1517048523654 815.9935308738676 2028.9928685909817 820.5237319455243Q2021.8619965337443 825.0539330171811 2017.9190437491543 833.6109794858661Q2014.0040551687098 842.1680259545511 2014.0040551687098 854.2485621456359L2014.0040551687098 854.2485621456359Q2014.0040551687098 866.1333489076984 2018.0309005657382 874.7742879888216Q2022.0577459627666 883.4431912740907 2029.4123316531723 887.9733923457475Q2036.766917343578 892.5035934174043 2047.0297802651708 892.5035934174043L2047.0297802651708 892.5035934174043Q2058.1036051069987 892.5035934174043 2065.038727735214 888.2809985913539Q2072.001814567575 884.0584037653033 2076.2244093936256 876.7877106873357L2076.2244093936256 876.7877106873357L2088.892193871777 884.2541531943256Q2085.089062107917 891.1053832101028 2079.132686624813 896.1389399563881Q2073.2042753458545 901.1724967026735 2065.234477164236 903.8850245048383Q2057.2926431867636 906.5975523070032 2047.4212791232153 906.5975523070032ZM2160.7881627312186 906.5975523070032L2160.7881627312186 906.5975523070032Q2148.2881634779437 906.5975523070032 2137.8295511273286 900.3615347824385Q2127.3709387767135 894.125517257874 2121.106957048003 882.3246231082495Q2114.870939523438 870.5516931627711 2114.870939523438 854.2485621456359L2114.870939523438 854.2485621456359Q2114.870939523438 837.5259680663103 2121.526420110193 825.864894937416Q2128.153936492802 814.1758576043757 2139.0320119056078 808.0516968963951Q2149.9100873184134 801.8995719842686 2162.3821223675423 801.8995719842686L2162.3821223675423 801.8995719842686Q2174.8821216208175 801.8995719842686 2184.0264163765696 808.3313389378555Q2193.198675336467 814.7910700955882 2196.2188093842383 825.4454318752256L2196.2188093842383 825.4454318752256L2194.205386685724 826.871606286673L2194.205386685724 757.6042726169579L2210.312768273837 757.6042726169579L2210.312768273837 904.584129608489L2196.2188093842383 904.584129608489L2194.820599176937 880.2273077972974L2197.029771304473 879.024847019018Q2195.6035968930255 887.8615355291633 2190.29039810528 894.0136604412899Q2184.949235113388 900.1657853534164 2177.2031505649384 903.3816688302098Q2169.4291018123417 906.5975523070032 2160.7881627312186 906.5975523070032ZM2162.3821223675423 892.5035934174043L2162.3821223675423 892.5035934174043Q2172.0577370020687 892.5035934174043 2179.216573263452 887.6657861001412Q2186.34744532069 882.8279787828781 2190.29039810528 873.8794334561486Q2194.205386685724 864.9308881294193 2194.205386685724 852.8503519383345L2194.205386685724 852.8503519383345Q2194.205386685724 841.3570640343163 2190.29039810528 833.1076238112377Q2186.34744532069 824.8581835881589 2179.412322692475 820.4118751289402Q2172.4492358601133 815.9935308738676 2163.1930842877773 815.9935308738676L2163.1930842877773 815.9935308738676Q2147.896664619899 815.9935308738676 2139.4514749677983 826.4521432244826Q2130.9783211115514 836.9387197792437 2130.9783211115514 854.2485621456359L2130.9783211115514 854.2485621456359Q2130.9783211115514 871.5584045120282 2139.22776133463 882.0449810667893Q2147.5051657618546 892.5035934174043 2162.3821223675423 892.5035934174043ZM2255.810528419427 784.5897296178765L2255.810528419427 784.5897296178765Q2250.3854728150973 784.5897296178765 2247.05773252172 781.2619893244989Q2243.7299922283423 777.9342490311215 2243.7299922283423 772.5091934267917L2243.7299922283423 772.5091934267917Q2243.7299922283423 767.0561736183159 2247.05773252172 763.7563975290844Q2250.3854728150973 760.428657235707 2255.810528419427 760.428657235707L2255.810528419427 760.428657235707Q2261.263548227903 760.428657235707 2264.5633243171346 763.7563975290844Q2267.891064610512 767.0561736183159 2267.891064610512 772.5091934267917L2267.891064610512 772.5091934267917Q2267.891064610512 777.9342490311215 2264.5633243171346 781.2619893244989Q2261.263548227903 784.5897296178765 2255.810528419427 784.5897296178765ZM2247.7568376253707 803.9129946827828L2263.8642192134835 803.9129946827828L2263.8642192134835 904.584129608489L2247.7568376253707 904.584129608489L2247.7568376253707 803.9129946827828ZM2343.002916946747 801.8995719842686L2343.002916946747 801.8995719842686Q2353.461529297362 801.8995719842686 2361.4313274789806 805.1154554610621Q2369.3731614564526 808.3313389378555 2375.217680122973 814.3716070333979Q2381.0621987894933 820.4118751289402 2384.669581124331 828.6892795561649L2384.669581124331 828.6892795561649L2369.3731614564526 835.9320084299866Q2366.1572779796593 826.2563937954604 2359.6136542094887 821.138944436737Q2353.0700304393176 815.9935308738676 2342.5834538845565 815.9935308738676L2342.5834538845565 815.9935308738676Q2332.516340391986 815.9935308738676 2325.2736115181647 820.5237319455243Q2318.030882644343 825.0539330171811 2314.1997866763368 833.6109794858661Q2310.3686907083306 842.1680259545511 2310.3686907083306 854.2485621456359L2310.3686907083306 854.2485621456359Q2310.3686907083306 866.1333489076984 2314.1997866763368 874.7742879888216Q2318.030882644343 883.4431912740907 2325.2736115181647 887.9733923457475Q2332.516340391986 892.5035934174043 2342.5834538845565 892.5035934174043L2342.5834538845565 892.5035934174043Q2350.441395249591 892.5035934174043 2356.174057099527 890.0986718608457Q2361.934683153609 887.6657861001412 2365.653922305031 883.0516924160463Q2369.3731614564526 878.4096345278055 2370.771371663754 871.7541539410504L2370.771371663754 871.7541539410504L2385.676292473588 877.0114243205039Q2382.2646595677725 886.2675758928398 2376.3082840846682 892.8950922754487Q2370.37987280571 899.5505728622037 2362.018575766047 903.0740625846034Q2353.6572787263844 906.5975523070032 2343.002916946747 906.5975523070032L2343.002916946747 906.5975523070032Q2328.908958057148 906.5975523070032 2317.8351332153206 900.3615347824385Q2306.7613083734927 894.125517257874 2300.5252908489283 882.3246231082495Q2294.2613091202174 870.5516931627711 2294.2613091202174 854.2485621456359L2294.2613091202174 854.2485621456359Q2294.2613091202174 837.9454311285007 2300.5252908489283 826.1725011830223Q2306.7613083734927 814.3716070333979 2317.8351332153206 808.1355895088333Q2328.908958057148 801.8995719842686 2343.002916946747 801.8995719842686ZM2421.72215161782 779.7519223006133L2437.8295332059333 775.3335780455407L2437.8295332059333 876.7877106873357Q2437.8295332059333 884.2541531943256 2442.0521280319836 887.8615355291633Q2446.2747228580342 891.4968820681472 2452.930203444789 891.4968820681472L2452.930203444789 891.4968820681472Q2458.774722111309 891.4968820681472 2462.9973169373598 889.4834593696331Q2467.21991176341 887.4700366711189 2470.659508873372 884.0584037653033L2470.659508873372 884.0584037653033L2476.2803139067237 897.5371501636896Q2471.666220222629 901.75974498974 2465.31834588148 904.1926307504447Q2458.9704715403313 906.5975523070032 2450.7210313172527 906.5975523070032L2450.7210313172527 906.5975523070032Q2443.058839381241 906.5975523070032 2436.431322998632 903.8850245048383Q2429.7758424118765 901.1724967026735 2425.8608538314325 895.2161212195691Q2421.9179010468424 889.2877099406109 2421.72215161782 879.6120953060847L2421.72215161782 879.6120953060847L2421.72215161782 779.7519223006133ZM2401.587924632679 803.9129946827828L2474.4626406372317 803.9129946827828L2474.4626406372317 817.8112041433595L2401.587924632679 817.8112041433595L2401.587924632679 803.9129946827828ZM2506.4816543844354 784.5897296178765L2506.4816543844354 784.5897296178765Q2501.056598780106 784.5897296178765 2497.7288584867283 781.2619893244989Q2494.4011181933506 777.9342490311215 2494.4011181933506 772.5091934267917L2494.4011181933506 772.5091934267917Q2494.4011181933506 767.0561736183159 2497.7288584867283 763.7563975290844Q2501.056598780106 760.428657235707 2506.4816543844354 760.428657235707L2506.4816543844354 760.428657235707Q2511.934674192911 760.428657235707 2515.2344502821425 763.7563975290844Q2518.56219057552 767.0561736183159 2518.56219057552 772.5091934267917L2518.56219057552 772.5091934267917Q2518.56219057552 777.9342490311215 2515.2344502821425 781.2619893244989Q2511.934674192911 784.5897296178765 2506.4816543844354 784.5897296178765ZM2498.427963590379 803.9129946827828L2514.5353451784918 803.9129946827828L2514.5353451784918 904.584129608489L2498.427963590379 904.584129608489L2498.427963590379 803.9129946827828ZM2593.674042911756 801.8995719842686L2593.674042911756 801.8995719842686Q2607.9637512303766 801.8995719842686 2618.92571925562 808.1355895088333Q2629.91565148501 814.3716070333979 2636.151669009574 826.1725011830223Q2642.387686534139 837.9454311285007 2642.387686534139 854.2485621456359L2642.387686534139 854.2485621456359Q2642.387686534139 870.5516931627711 2636.151669009574 882.3246231082495Q2629.91565148501 894.125517257874 2618.92571925562 900.3615347824385Q2607.9637512303766 906.5975523070032 2593.674042911756 906.5975523070032L2593.674042911756 906.5975523070032Q2579.580084022157 906.5975523070032 2568.506259180329 900.3615347824385Q2557.4324343385015 894.125517257874 2551.1964168139366 882.3246231082495Q2544.932435085226 870.5516931627711 2544.932435085226 854.2485621456359L2544.932435085226 854.2485621456359Q2544.932435085226 837.9454311285007 2551.1964168139366 826.1725011830223Q2557.4324343385015 814.3716070333979 2568.506259180329 808.1355895088333Q2579.580084022157 801.8995719842686 2593.674042911756 801.8995719842686ZM2593.674042911756 815.7977814448453L2593.674042911756 815.7977814448453Q2583.411179990163 815.7977814448453 2576.1404869121952 820.4118751289402Q2568.8977580383735 825.0539330171811 2564.9827694579294 833.6109794858661Q2561.0398166733394 842.1680259545511 2561.0398166733394 854.2485621456359L2561.0398166733394 854.2485621456359Q2561.0398166733394 866.1333489076984 2564.9827694579294 874.7742879888216Q2568.8977580383735 883.4431912740907 2576.1404869121952 888.0852491623316Q2583.411179990163 892.6993428464265 2593.674042911756 892.6993428464265L2593.674042911756 892.6993428464265Q2603.936905833348 892.6993428464265 2611.17963470717 888.0852491623316Q2618.4223635809917 883.4431912740907 2622.3653163655817 874.7742879888216Q2626.280304946026 866.1333489076984 2626.280304946026 854.2485621456359L2626.280304946026 854.2485621456359Q2626.280304946026 842.1680259545511 2622.3653163655817 833.6109794858661Q2618.4223635809917 825.0539330171811 2611.17963470717 820.4118751289402Q2603.936905833348 815.7977814448453 2593.674042911756 815.7977814448453ZM2688.8921580289857 904.584129608489L2672.784776440873 904.584129608489L2672.784776440873 803.9129946827828L2686.878735330472 803.9129946827828L2688.30490974192 826.4521432244826L2685.676274552193 824.2429710969462Q2688.8921580289857 816.1892803028898 2694.345177837462 811.2675803731886Q2699.7702334417913 806.3179162393413 2706.929069703175 804.1087441118051Q2714.0599417604126 801.8995719842686 2721.722133696425 801.8995719842686L2721.722133696425 801.8995719842686Q2732.60020910923 801.8995719842686 2741.4648618235215 806.038274197881Q2750.301550333667 810.1490122073474 2755.6427133255584 818.6221660635944Q2760.9838763174503 827.0673557156953 2760.9838763174503 840.154603256037L2760.9838763174503 840.154603256037L2760.9838763174503 904.584129608489L2744.876494729337 904.584129608489L2744.876494729337 845.803372493535Q2744.876494729337 829.0807784142094 2737.7176584679537 822.5371546440384Q2730.5867864107163 815.9935308738676 2720.100209855955 815.9935308738676L2720.100209855955 815.9935308738676Q2712.8574809821334 815.9935308738676 2705.6147521083117 819.4051637796832Q2698.37202323449 822.8447608896448 2693.6460727338113 830.4789886215109Q2688.8921580289857 838.141180557523 2688.8921580289857 851.0326786688425L2688.8921580289857 851.0326786688425L2688.8921580289857 904.584129608489ZM2899.294830023712 906.5975523070032L2899.294830023712 906.5975523070032Q2886.0118330543482 906.5975523070032 2876.55993205299 901.9554944187622Q2867.0800668474863 897.3414007346674 2862.0465101012005 889.2877099406109Q2857.012953354915 881.2340191465544 2857.012953354915 870.7474425917934L2857.012953354915 870.7474425917934Q2857.012953354915 864.3156756382066 2858.7467340119692 858.5830137882705Q2860.452550464877 852.8503519383345 2864.283646432883 847.593081558881Q2868.086778196743 842.3637753835734 2874.6304019669137 837.7496816994785Q2881.174025737085 833.1076238112377 2890.849640371611 829.0807784142094L2890.849640371611 829.0807784142094L2899.294830023712 824.8581835881589Q2906.957021959724 820.6355887621085 2911.9905787060093 816.8883854065406Q2917.024135452295 813.1691462551186 2919.540913825437 808.7508020000458Q2922.05769219858 804.3044935408273 2922.05769219858 798.2642254452849L2922.05769219858 798.2642254452849Q2922.05769219858 791.2172460004855 2917.7232405559457 787.3022574200413Q2913.388788913311 783.3872688395971 2905.950310610467 783.3872688395971L2905.950310610467 783.3872688395971Q2897.2814073251975 783.3872688395971 2893.1706693157316 788.1132193402761Q2889.0319671021193 792.8391698409552 2889.0319671021193 799.0751873655197L2889.0319671021193 799.0751873655197Q2889.0319671021193 802.9062833335257 2890.0386784513767 806.4297730559255Q2891.0453898006335 809.9532627783252 2894.373130094011 815.1825689536328Q2897.7008703873885 820.4118751289402 2904.3283867699975 829.0807784142094Q2910.9838673567524 837.7496816994785 2922.2534416276026 851.8436405890774L2922.2534416276026 851.8436405890774Q2933.74672953162 865.9375994786762 2941.185207834464 874.4946459473613Q2948.623686137308 883.0516924160463 2953.8809565167617 887.3581798545349Q2959.110262692069 891.6926314971694 2963.640463763726 893.118805908617Q2968.170664835383 894.5170161159184 2973.5957204397123 894.5170161159184L2973.5957204397123 894.5170161159184L2969.568875042684 906.5975523070032Q2963.7243563761645 906.5975523070032 2958.6069070174403 905.1993420997017Q2953.461493454571 903.7731676882541 2947.337332746591 899.1590740041594Q2941.185207834464 894.5170161159184 2932.6281613657793 885.2608645435827Q2924.071114897094 876.0047129712469 2911.375366214797 860.4845796702006L2911.375366214797 860.4845796702006Q2900.5252550061373 847.0058332718143 2893.2545619281696 837.7496816994785Q2886.0118330543482 828.4655659229967 2881.7892382282976 822.03379896941Q2877.566643402247 815.6020320158232 2875.748970132755 810.2608690239316Q2873.9312968632635 804.9197060320399 2873.9312968632635 799.2709367945419L2873.9312968632635 799.2709367945419Q2873.9312968632635 792.0282079207203 2877.4547865856634 785.1769779049431Q2880.9782763080625 778.3537120933119 2888.2210051818847 774.0192604506773Q2895.491698259852 769.6848088080427 2906.957021959724 769.6848088080427L2906.957021959724 769.6848088080427Q2915.625925244993 769.6848088080427 2922.05769219858 772.900692284836Q2928.489459152167 776.1165757616295 2932.2366625077348 782.1568438571718Q2935.955901659157 788.1971119527142 2935.955901659157 796.474516379939L2935.955901659157 796.474516379939Q2935.955901659157 803.5214958247384 2933.634872715036 809.8414059617411Q2931.313843770916 816.1892803028898 2924.965969429767 822.3414052150163Q2918.6460592927647 828.4655659229967 2906.1460600394894 835.1210465097517L2906.1460600394894 835.1210465097517L2899.294830023712 837.7496816994785Q2888.836217673097 842.5595248125957 2882.991699006577 847.0897258842524Q2877.147180340057 851.6199269559091 2874.742258783498 856.8771973353627Q2872.3373372269393 862.1065035106702 2872.3373372269393 869.3492323844919L2872.3373372269393 869.3492323844919Q2872.3373372269393 876.7877106873357 2876.1404689907995 882.2407304958115Q2879.9715649588056 887.6657861001412 2886.4312961165383 890.6020275354743Q2892.8630630701255 893.5103047666613 2900.916753864182 893.5103047666613L2900.916753864182 893.5103047666613Q2911.9905787060093 893.5103047666613 2919.6527706420216 889.4834593696331Q2927.2869983738874 885.4566139726048 2933.74672953162 878.018135669761L2933.74672953162 878.018135669761L2936.347400517201 875.5852499090564Q2941.5767066925087 867.3358096859778 2944.512948127842 856.8771973353627Q2947.421225359029 846.3906207806016 2946.4145140097717 833.499122669282L2946.4145140097717 833.499122669282L2960.116974041326 834.7295476517073Q2960.927935961561 847.593081558881 2957.404446239161 860.0930808121561Q2953.8809565167617 872.5651158612852 2946.2187645807494 882.6322293538559L2946.2187645807494 882.6322293538559L2943.1986305329783 886.8548241799064Q2935.5364385969665 895.9152263232198 2924.686327388307 901.2563893151115Q2913.808251975501 906.5975523070032 2899.294830023712 906.5975523070032ZM3107.907792953092 904.584129608489L3087.969315396973 904.584129608489L3048.707572775948 771.6982315065568L3065.402202651127 771.6982315065568L3098.232178318566 889.8749582276776L3129.4402301455348 771.6982315065568L3147.7567838611844 771.6982315065568L3178.964835688153 890.294421289868L3211.7948113555917 771.6982315065568L3227.706443514682 771.6982315065568L3188.640450322679 904.584129608489L3168.70197276656 904.584129608489L3145.1561128756034 818.3984524304261L3138.304882859826 788.4208255858824L3138.1091334308035 788.4208255858824L3131.2579034150267 818.3984524304261L3107.907792953092 904.584129608489ZM3295.743352201972 906.5975523070032L3295.743352201972 906.5975523070032Q3281.453643883351 906.5975523070032 3270.2679622249393 900.3615347824385Q3259.110244770674 894.125517257874 3252.874227246109 882.3246231082495Q3246.6102455173987 870.5516931627711 3246.6102455173987 854.2485621456359L3246.6102455173987 854.2485621456359Q3246.6102455173987 837.9454311285007 3252.874227246109 826.1725011830223Q3259.110244770674 814.3716070333979 3269.988320183479 808.1355895088333Q3280.8384313921383 801.8995719842686 3294.736640852715 801.8995719842686L3294.736640852715 801.8995719842686Q3308.830599742314 801.8995719842686 3318.8138206224467 807.939840079811Q3328.7690772984333 813.9801081753534 3333.998383473741 824.3548279135304Q3339.2276896490484 834.7295476517073 3339.2276896490484 847.593081558881L3339.2276896490484 847.593081558881Q3339.2276896490484 851.0326786688425 3339.0319402200257 853.8570632875916Q3338.836190791004 856.6534837021944 3338.4446919329594 858.8906200338769L3338.4446919329594 858.8906200338769L3257.0968220721593 858.8906200338769L3257.0968220721593 844.5729475111096L3331.39771248816 844.5729475111096L3323.1203080609353 846.1948713515794Q3323.1203080609353 831.7094136039361 3315.178474083463 823.8514722389019Q3307.2366401059903 815.9935308738676 3294.345141994671 815.9935308738676L3294.345141994671 815.9935308738676Q3284.473777931122 815.9935308738676 3277.314941669739 820.5237319455243Q3270.1840696125014 825.0539330171811 3266.2411168279114 833.6109794858661Q3262.326128247467 842.1680259545511 3262.326128247467 854.2485621456359L3262.326128247467 854.2485621456359Q3262.326128247467 866.1333489076984 3266.352973644495 874.7742879888216Q3270.379819041523 883.4431912740907 3277.7344047319293 887.9733923457475Q3285.088990422335 892.5035934174043 3295.351853343928 892.5035934174043L3295.351853343928 892.5035934174043Q3306.4256781857553 892.5035934174043 3313.360800813971 888.2809985913539Q3320.323887646332 884.0584037653033 3324.5464824723826 876.7877106873357L3324.5464824723826 876.7877106873357L3337.214266950534 884.2541531943256Q3333.411135186674 891.1053832101028 3327.45475970357 896.1389399563881Q3321.526348424611 901.1724967026735 3313.5565502429927 903.8850245048383Q3305.6147162655207 906.5975523070032 3295.743352201972 906.5975523070032ZM3428.6292503039044 867.3358096859778L3428.6292503039044 839.5393907648244Q3428.6292503039044 828.2698164939745 3422.5889822083623 822.1456557859941Q3416.5487141128197 815.9935308738676 3405.4748892709918 815.9935308738676L3405.4748892709918 815.9935308738676Q3395.0162769203766 815.9935308738676 3387.7735480465553 820.5237319455243Q3380.5028549685876 825.0539330171811 3377.091222062772 835.1210465097517L3377.091222062772 835.1210465097517L3364.0039745224303 827.0673557156953Q3368.0308199194583 815.7977814448453 3378.9088953322635 808.834694612484Q3389.7869707450695 801.8995719842686 3405.8943523331823 801.8995719842686L3405.8943523331823 801.8995719842686Q3416.744463541842 801.8995719842686 3425.6091162561333 805.6188111356906Q3434.4737689704243 809.3380502871125 3439.619182533294 816.8883854065406Q3444.7366318920176 824.4387205259685 3444.7366318920176 836.323507288031L3444.7366318920176 836.323507288031L3444.7366318920176 885.0651151145604Q3444.7366318920176 892.307843988382 3452.39882382803 892.307843988382L3452.39882382803 892.307843988382Q3456.2299197960356 892.307843988382 3459.8373021308735 891.3011326391251L3459.8373021308735 891.3011326391251L3459.0263402106384 903.9689171172764Q3454.99949481361 905.9823398157905 3448.5677278600233 905.9823398157905L3448.5677278600233 905.9823398157905Q3442.7232091935034 905.9823398157905 3438.109115509408 903.7731676882541Q3433.4670576211674 901.5639955607179 3430.838422431441 897.033794489061Q3428.23775144586 892.5035934174043 3428.23775144586 885.6523634016271L3428.23775144586 885.6523634016271L3428.23775144586 883.638940703113L3432.2645968428883 884.2541531943256Q3429.8317110821836 892.1120945593599 3424.0151566198097 897.033794489061Q3418.1706379532893 901.9554944187622 3410.927909079468 904.2765233628827Q3403.6572160015003 906.5975523070032 3396.610236556701 906.5975523070032L3396.610236556701 906.5975523070032Q3387.7735480465553 906.5975523070032 3380.111356110543 903.577418259232Q3372.4491641745312 900.5572842114608 3367.9189631028744 894.4051592993343Q3363.388762031218 888.2809985913539 3363.388762031218 879.2205964480403L3363.388762031218 879.2205964480403Q3363.388762031218 867.9510221771903 3370.9390971506455 860.5964364867847Q3378.4894322700734 853.2418507963788 3391.996142872606 850.613215606652L3391.996142872606 850.613215606652L3431.8451337806982 842.7832384457638L3431.8451337806982 856.0662354151278L3399.4346211754496 862.6937517977368Q3389.5632571119013 864.707174496251 3384.7534139987843 868.3425210352348Q3379.9156066815212 871.9778675742186 3379.9156066815212 878.4096345278055L3379.9156066815212 878.4096345278055Q3379.9156066815212 884.64565205237 3384.837306611222 888.5886048369601Q3389.7869707450695 892.5035934174043 3398.847372888383 892.5035934174043L3398.847372888383 892.5035934174043Q3404.663927350757 892.5035934174043 3410.005090342649 890.9935263935187Q3415.3462533345405 889.4834593696331 3419.568848160591 886.3514685052778Q3423.7914429866414 883.2474418450685 3426.224328747346 878.5214913443896Q3428.6292503039044 873.7675766395645 3428.6292503039044 867.3358096859778L3428.6292503039044 867.3358096859778ZM3491.4648170200326 779.7519223006133L3507.5721986081458 775.3335780455407L3507.5721986081458 876.7877106873357Q3507.5721986081458 884.2541531943256 3511.794793434196 887.8615355291633Q3516.0173882602467 891.4968820681472 3522.6728688470016 891.4968820681472L3522.6728688470016 891.4968820681472Q3528.489423309376 891.4968820681472 3532.739982339572 889.4834593696331Q3536.962577165623 887.4700366711189 3540.3742100714385 884.0584037653033L3540.3742100714385 884.0584037653033L3546.022979308936 897.5371501636896Q3541.3809214206954 901.75974498974 3535.0330470795466 904.1926307504447Q3528.713136942544 906.5975523070032 3520.4357325153196 906.5975523070032L3520.4357325153196 906.5975523070032Q3512.8015047834533 906.5975523070032 3506.146024196698 903.8850245048383Q3499.5185078140894 901.1724967026735 3495.5755550294994 895.2161212195691Q3491.660566449055 889.2877099406109 3491.4648170200326 879.6120953060847L3491.4648170200326 879.6120953060847L3491.4648170200326 779.7519223006133ZM3471.330590034892 803.9129946827828L3544.205306039444 803.9129946827828L3544.205306039444 817.8112041433595L3471.330590034892 817.8112041433595L3471.330590034892 803.9129946827828ZM3584.2780105807046 904.584129608489L3568.1706289925914 904.584129608489L3568.1706289925914 757.6042726169579L3584.2780105807046 757.6042726169579L3584.2780105807046 819.0136649216387Q3589.507316756012 809.9532627783252 3598.1762200412813 805.9264173812969Q3606.817159122404 801.8995719842686 3617.0800220439974 801.8995719842686L3617.0800220439974 801.8995719842686Q3627.9580974568025 801.8995719842686 3636.822750171094 806.038274197881Q3645.6874028853854 810.1490122073474 3651.0285658772773 818.6221660635944Q3656.3417646650228 827.0673557156953 3656.3417646650228 840.154603256037L3656.3417646650228 840.154603256037L3656.3417646650228 904.584129608489L3640.2343830769096 904.584129608489L3640.2343830769096 845.803372493535Q3640.2343830769096 829.0807784142094 3633.1035110196717 822.5371546440384Q3625.944674758289 815.9935308738676 3615.4860624076737 815.9935308738676L3615.4860624076737 815.9935308738676Q3608.243333533852 815.9935308738676 3600.972640455884 819.4051637796832Q3593.729911582063 822.8447608896448 3589.0039610813833 830.590845438095Q3584.2780105807046 838.3369299865452 3584.2780105807046 851.2284280978647L3584.2780105807046 851.2284280978647L3584.2780105807046 904.584129608489ZM3734.865249907074 906.5975523070032L3734.865249907074 906.5975523070032Q3720.5755415884523 906.5975523070032 3709.417824134187 900.3615347824385Q3698.2321424757747 894.125517257874 3691.9961249512103 882.3246231082495Q3685.760107426646 870.5516931627711 3685.760107426646 854.2485621456359L3685.760107426646 854.2485621456359Q3685.760107426646 837.9454311285007 3691.9961249512103 826.1725011830223Q3698.2321424757747 814.3716070333979 3709.1102178885803 808.1355895088333Q3719.9882933013855 801.8995719842686 3733.8585385578162 801.8995719842686L3733.8585385578162 801.8995719842686Q3747.952497447415 801.8995719842686 3757.935718327548 807.939840079811Q3767.890975003534 813.9801081753534 3773.1202811788417 824.3548279135304Q3778.3775515582956 834.7295476517073 3778.3775515582956 847.593081558881L3778.3775515582956 847.593081558881Q3778.3775515582956 851.0326786688425 3778.153837925127 853.8570632875916Q3777.958088496105 856.6534837021944 3777.5665896380606 858.8906200338769L3777.5665896380606 858.8906200338769L3696.218719777261 858.8906200338769L3696.218719777261 844.5729475111096L3770.519610193261 844.5729475111096L3762.2701699701825 846.1948713515794Q3762.2701699701825 831.7094136039361 3754.300371788564 823.8514722389019Q3746.3585378110915 815.9935308738676 3733.467039699772 815.9935308738676L3733.467039699772 815.9935308738676Q3723.5956756362234 815.9935308738676 3716.464803578986 820.5237319455243Q3709.305967317602 825.0539330171811 3705.3909787371585 833.6109794858661Q3701.4480259525685 842.1680259545511 3701.4480259525685 854.2485621456359L3701.4480259525685 854.2485621456359Q3701.4480259525685 866.1333489076984 3705.474871349597 874.7742879888216Q3709.501716746625 883.4431912740907 3716.8563024370305 887.9733923457475Q3724.210888127436 892.5035934174043 3734.473751049029 892.5035934174043L3734.473751049029 892.5035934174043Q3745.547575890857 892.5035934174043 3752.482698519072 888.2809985913539Q3759.4457853514336 884.0584037653033 3763.668380177484 876.7877106873357L3763.668380177484 876.7877106873357L3776.364128859781 884.2541531943256Q3772.5330328917753 891.1053832101028 3766.576657408671 896.1389399563881Q3760.648246129713 901.1724967026735 3752.7064121522403 903.8850245048383Q3744.736613970622 906.5975523070032 3734.865249907074 906.5975523070032ZM3825.077772482165 904.584129608489L3808.970390894052 904.584129608489L3808.970390894052 803.9129946827828L3822.0576384343935 803.9129946827828L3824.2668105619296 820.4118751289402Q3828.4894053879802 811.1557235566045 3836.654952998621 806.5416298725096Q3844.820500609261 801.8995719842686 3856.481573738156 801.8995719842686L3856.481573738156 801.8995719842686Q3859.1102089278825 801.8995719842686 3862.214235588092 802.2910708423132Q3865.3462264524474 802.7105339045036 3867.5553985799834 803.9129946827828L3867.5553985799834 803.9129946827828L3864.7310139612346 818.6221660635944Q3862.5218418336985 817.8112041433595 3859.9211708481175 817.391741081169Q3857.292535658391 817.0002422231247 3852.4547283411275 817.0002422231247L3852.4547283411275 817.0002422231247Q3846.218710816563 817.0002422231247 3839.8708364754143 820.6355887621085Q3833.5229621342655 824.2429710969462 3829.3003673082153 831.597556787352Q3825.077772482165 838.9521424777578 3825.077772482165 850.2217167486077L3825.077772482165 850.2217167486077L3825.077772482165 904.584129608489ZM4017.1638907612414 771.6982315065568L4068.7019190023734 904.584129608489L4051.587826065004 904.584129608489L4037.493867175405 867.7273085440221L3977.2869356490037 867.7273085440221L3963.1929767594042 904.584129608489L3946.2746332510565 904.584129608489L3998.036375125357 771.6982315065568L4017.1638907612414 771.6982315065568ZM4007.2925266976927 787.1904006034572L3983.1314543155236 852.6266383051662L4031.6493485088845 852.6266383051662L4007.2925266976927 787.1904006034572ZM4091.856280035286 757.6042726169579L4107.963661623398 757.6042726169579L4107.963661623398 879.024847019018Q4107.963661623398 886.6590747508841 4110.788046242149 889.5953161862172Q4113.612430860898 892.5035934174043 4119.848448385461 892.5035934174043L4119.848448385461 892.5035934174043Q4123.87529378249 892.5035934174043 4126.475964768071 891.8883809261916Q4129.104599957798 891.3011326391251 4133.522944212869 889.6792087986553L4133.522944212869 889.6792087986553L4130.922273227289 903.7731676882541Q4127.706389750496 905.1993420997017 4123.87529378249 905.8984472033525Q4120.0441978144845 906.5975523070032 4116.017352417455 906.5975523070032L4116.017352417455 906.5975523070032Q4103.741066797349 906.5975523070032 4097.784691314244 899.9420717202481Q4091.856280035286 893.3145553376391 4091.856280035286 879.6120953060847L4091.856280035286 879.6120953060847L4091.856280035286 757.6042726169579ZM4196.358510928998 906.5975523070032L4196.358510928998 906.5975523070032Q4182.068802610377 906.5975523070032 4170.883120951965 900.3615347824385Q4159.6974392935535 894.125517257874 4153.46142176899 882.3246231082495Q4147.225404244425 870.5516931627711 4147.225404244425 854.2485621456359L4147.225404244425 854.2485621456359Q4147.225404244425 837.9454311285007 4153.46142176899 826.1725011830223Q4159.6974392935535 814.3716070333979 4170.575514706359 808.1355895088333Q4181.453590119165 801.8995719842686 4195.351799579741 801.8995719842686L4195.351799579741 801.8995719842686Q4209.445758469341 801.8995719842686 4219.401015145327 807.939840079811Q4229.384236025459 813.9801081753534 4234.6135422007665 824.3548279135304Q4239.8428483760745 834.7295476517073 4239.8428483760745 847.593081558881L4239.8428483760745 847.593081558881Q4239.8428483760745 851.0326786688425 4239.647098947053 853.8570632875916Q4239.451349518031 856.6534837021944 4239.031886455839 858.8906200338769L4239.031886455839 858.8906200338769L4157.68401659504 858.8906200338769L4157.68401659504 844.5729475111096L4231.9849070110395 844.5729475111096L4223.735466787961 846.1948713515794Q4223.735466787961 831.7094136039361 4215.79363281049 823.8514722389019Q4207.823834628871 815.9935308738676 4194.932336517551 815.9935308738676L4194.932336517551 815.9935308738676Q4185.088936658149 815.9935308738676 4177.930100396765 820.5237319455243Q4170.771264135381 825.0539330171811 4166.856275554937 833.6109794858661Q4162.941286974493 842.1680259545511 4162.941286974493 854.2485621456359L4162.941286974493 854.2485621456359Q4162.941286974493 866.1333489076984 4166.968132371521 874.7742879888216Q4170.994977768551 883.4431912740907 4178.321599254809 887.9733923457475Q4185.676184945216 892.5035934174043 4195.939047866808 892.5035934174043L4195.939047866808 892.5035934174043Q4207.012872708636 892.5035934174043 4213.975959540997 888.2809985913539Q4220.911082169212 884.0584037653033 4225.133676995263 876.7877106873357L4225.133676995263 876.7877106873357L4237.829425677561 884.2541531943256Q4233.998329709555 891.1053832101028 4228.069918430596 896.1389399563881Q4222.113542947492 901.1724967026735 4214.171708970019 903.8850245048383Q4206.229874992547 906.5975523070032 4196.358510928998 906.5975523070032ZM4286.543069299943 904.584129608489L4270.435687711831 904.584129608489L4270.435687711831 803.9129946827828L4283.522935252173 803.9129946827828L4285.760071583854 820.4118751289402Q4289.9826664099055 811.1557235566045 4298.120249816399 806.5416298725096Q4306.285797427041 801.8995719842686 4317.974834760081 801.8995719842686L4317.974834760081 801.8995719842686Q4320.575505745662 801.8995719842686 4323.707496610017 802.2910708423132Q4326.811523270226 802.7105339045036 4329.048659601909 803.9129946827828L4329.048659601909 803.9129946827828L4326.22427498316 818.6221660635944Q4324.015102855623 817.8112041433595 4321.386467665896 817.391741081169Q4318.757832476169 817.0002422231247 4313.947989363052 817.0002422231247L4313.947989363052 817.0002422231247Q4307.6840076343415 817.0002422231247 4301.364097497339 820.6355887621085Q4295.01622315619 824.2429710969462 4290.793628330141 831.597556787352Q4286.543069299943 838.9521424777578 4286.543069299943 850.2217167486077L4286.543069299943 850.2217167486077L4286.543069299943 904.584129608489ZM4360.256711428878 779.7519223006133L4376.3640930169895 775.3335780455407L4376.3640930169895 876.7877106873357Q4376.3640930169895 884.2541531943256 4380.586687843041 887.8615355291633Q4384.809282669091 891.4968820681472 4391.464763255846 891.4968820681472L4391.464763255846 891.4968820681472Q4397.28131771822 891.4968820681472 4401.531876748417 889.4834593696331Q4405.754471574467 887.4700366711189 4409.166104480282 884.0584037653033L4409.166104480282 884.0584037653033L4414.814873717781 897.5371501636896Q4410.17281582954 901.75974498974 4403.824941488391 904.1926307504447Q4397.505031351389 906.5975523070032 4389.227626924165 906.5975523070032L4389.227626924165 906.5975523070032Q4381.5933991922975 906.5975523070032 4374.937918605543 903.8850245048383Q4368.3104022229345 901.1724967026735 4364.367449438343 895.2161212195691Q4360.4524608578995 889.2877099406109 4360.256711428878 879.6120953060847L4360.256711428878 879.6120953060847L4360.256711428878 779.7519223006133ZM4340.1224844437365 803.9129946827828L4412.997200448289 803.9129946827828L4412.997200448289 817.8112041433595L4340.1224844437365 817.8112041433595L4340.1224844437365 803.9129946827828ZM4473.20413197469 906.5975523070032L4473.20413197469 906.5975523070032Q4458.494960593879 906.5975523070032 4446.106818157188 900.3615347824385Q4433.746639924642 894.125517257874 4427.091159337888 882.6322293538559L4427.091159337888 882.6322293538559L4440.793619369442 872.7608652903075Q4445.211963624515 882.0449810667893 4453.7690100931995 887.2742872420968Q4462.326056561885 892.5035934174043 4474.40659275297 892.5035934174043L4474.40659275297 892.5035934174043Q4485.088918736754 892.5035934174043 4491.129186832295 888.3648912037919Q4497.169454927838 884.2541531943256 4497.169454927838 877.5986726075706L4497.169454927838 877.5986726075706Q4497.169454927838 873.3760777815202 4494.428962921527 869.8525880591204Q4491.716435119362 866.3290983367207 4484.082207387495 864.707174496251L4484.082207387495 864.707174496251L4459.9211350053265 859.6736177499657Q4445.211963624515 856.6534837021944 4438.864089283366 849.606504257395Q4432.516214942218 842.5595248125957 4432.516214942218 832.1009124619806L4432.516214942218 832.1009124619806Q4432.516214942218 823.8514722389019 4437.270129647043 817.0002422231247Q4441.996080147721 810.1490122073474 4450.748876045429 806.038274197881Q4459.501671943136 801.8995719842686 4471.3864587051985 801.8995719842686L4471.3864587051985 801.8995719842686Q4486.2913795150325 801.8995719842686 4496.554242436625 807.7440906507888Q4506.817105358218 813.5886093173091 4511.8506621045035 824.2429710969462L4511.8506621045035 824.2429710969462L4498.371915706117 833.1076238112377Q4494.932318596156 824.2429710969462 4487.298090864289 820.1322330874799Q4479.635898928277 815.9935308738676 4471.3864587051985 815.9935308738676L4471.3864587051985 815.9935308738676Q4464.143729831377 815.9935308738676 4458.998316268508 818.0069535723817Q4453.880866909783 820.0203762708958 4451.140374903473 823.5438659932955Q4448.427847101308 827.0673557156953 4448.427847101308 831.4856999707679L4448.427847101308 831.4856999707679Q4448.427847101308 835.9320084299866 4451.44798114908 839.6512475814085Q4454.468115196851 843.3704867328305 4462.717555419929 844.9924105733002L4462.717555419929 844.9924105733002L4487.885339151357 850.2217167486077Q4501.979298040955 853.0461013673566 4507.628067278452 859.4778683209435Q4513.276836515951 865.9375994786762 4513.276836515951 875.1937510510121L4513.276836515951 875.1937510510121Q4513.276836515951 884.64565205237 4508.243279769666 891.8044883137535Q4503.209723023381 898.935360370991 4494.149320880066 902.7664563389972Q4485.088918736754 906.5975523070032 4473.20413197469 906.5975523070032Z " fill="#fbeaeb" transform="matrix(0.19448934157954662,0,0,0.19448934157954662,-2.7842003898673764,138.26312563119055)"/></g></svg>